<svg width="195" height="208" viewBox="0 0 195 208" fill="none" xmlns="http://www.w3.org/2000/svg">
<path d="M48.5975 58.2826V0H108.188C130.994 0 146.406 20.605 146.406 36.555V54.3719H93.3742C93.3742 41.1566 104.666 36.555 109.087 36.555C113.21 36.6482 122.855 36.6112 128.627 36.6112C128.627 23.5028 113.963 17.7772 108.217 17.7772H66.3775C66.3775 23.2752 66.3501 37.6543 66.3501 54.4212C66.3501 72.1724 80.1205 79.9829 86.5027 79.9829H128.876V70.9127H146.407V97.76H86.5027C59.0467 97.76 48.5975 72.0093 48.5975 58.2826Z" fill="white"/>
<path d="M10.4263 202.472C10.4263 203.678 9.31603 204.492 7.66017 204.492H6.87474V207.641H5.61227V200.461H7.66017C9.31603 200.46 10.4263 201.264 10.4263 202.472ZM9.06793 202.472C9.06793 201.359 8.42642 200.615 7.46827 200.615H6.87474V204.339H7.46827C8.42642 204.338 9.06793 203.591 9.06793 202.472Z" fill="white"/>
<path d="M18.5899 207.488V207.641H14.6545V200.461H18.5227V200.613H15.9197V203.763H18.0827V203.918H15.9197V207.488H18.5899Z" fill="white"/>
<path d="M28.2789 207.642H26.8039L24.142 204.291H24.1241V207.642H22.8603V200.461H24.9768C26.5929 200.461 27.6744 201.218 27.6744 202.357C27.6744 203.371 26.8423 204.091 25.5511 204.254L28.2789 207.642ZM24.7835 204.137C25.7032 204.137 26.316 203.427 26.316 202.355C26.316 201.312 25.7032 200.613 24.7835 200.613H24.1241V204.136H24.7835V204.137Z" fill="white"/>
<path d="M33.6005 200.615V203.859H35.8307V204.011H33.6005V207.642H32.3381V200.461H36.3393V200.615H33.6005Z" fill="white"/>
<path d="M43.3238 207.737C41.5911 207.737 40.3849 206.644 40.3849 205.019V200.461H41.6487V205.249C41.6487 206.609 42.3958 207.518 43.5074 207.518C44.7891 207.518 45.6417 206.609 45.6417 205.249V200.461H45.8336V205.22C45.8336 206.732 44.8946 207.737 43.3238 207.737Z" fill="white"/>
<path d="M56.8787 207.643L56.4195 202.559L53.8727 207.737H53.7288L51.001 202.481L50.4842 207.643H50.2923L51.038 200.366H51.1737L54.3401 206.447L57.3009 200.366H57.4435L58.1809 207.643H56.8787Z" fill="white"/>
<path d="M66.6444 207.488V207.641H62.7104V200.461H66.5773V200.613H63.9742V203.763H66.1373V203.918H63.9742V207.488H66.6444Z" fill="white"/>
<path d="M76.3314 207.642H74.8565L72.1945 204.291H72.1767V207.642H70.9129V200.461H73.0293C74.6454 200.461 75.727 201.218 75.727 202.357C75.727 203.371 74.8949 204.091 73.6037 204.254L76.3314 207.642ZM72.8374 204.137C73.7558 204.137 74.3686 203.427 74.3686 202.355C74.3686 201.312 73.7558 200.613 72.8374 200.613H72.1767V204.136H72.8374V204.137Z" fill="white"/>
<path d="M83.281 204.435V207.642H82.0171V204.518L79.4429 200.461H80.8684L83.2028 204.216L85.4741 200.461H85.6743L83.281 204.435Z" fill="white"/>
<path d="M99.6776 207.642L98.8921 206.817C98.2397 207.401 97.4282 207.735 96.5838 207.735C95.2939 207.735 94.4797 206.962 94.4797 205.879C94.4797 205.028 94.9759 204.385 95.8943 203.627C95.4735 203.122 95.1486 202.557 95.1486 201.982C95.1486 200.995 95.9738 200.364 97.1965 200.364C97.9052 200.364 98.6906 200.661 99.1197 201.109L99.0539 201.207C98.6317 200.853 98.0478 200.612 97.5214 200.612C96.8237 200.612 96.3741 201.072 96.3741 201.732C96.3741 202.353 96.8127 202.958 97.4446 203.626L99.4925 205.821C99.9531 205.121 100.24 204.2 100.251 203.167H100.383C100.383 204.248 100.097 205.205 99.6173 205.952L101.198 207.638H99.6776V207.642ZM98.7496 206.665L96.2096 203.995C96.1452 203.928 96.0862 203.859 96.0191 203.782C95.6078 204.243 95.3776 204.712 95.3776 205.287C95.3776 206.293 96.2302 207.21 97.3213 207.21C97.8298 207.209 98.3192 207.019 98.7496 206.665Z" fill="white"/>
<path d="M113.299 207.738C111.155 207.738 109.711 206.264 109.711 204.053C109.711 201.841 111.155 200.368 113.299 200.368C114.246 200.368 115.252 200.732 115.817 201.297L115.74 201.383C115.243 200.945 114.429 200.646 113.73 200.646C112.131 200.646 111.068 202.006 111.068 204.055C111.068 206.104 112.139 207.462 113.749 207.462C114.468 207.462 115.32 207.106 115.854 206.572L115.932 206.687C115.328 207.316 114.267 207.738 113.299 207.738Z" fill="white"/>
<path d="M123.14 207.737C120.881 207.737 119.377 206.263 119.377 204.052C119.377 201.841 120.881 200.366 123.14 200.366C125.389 200.366 126.892 201.841 126.892 204.052C126.892 206.263 125.388 207.737 123.14 207.737ZM123.14 207.586C124.586 207.586 125.543 206.17 125.543 204.054C125.543 201.937 124.586 200.521 123.14 200.521C121.694 200.521 120.737 201.937 120.737 204.054C120.737 206.17 121.694 207.586 123.14 207.586Z" fill="white"/>
<path d="M133.058 207.738C132.091 207.738 131.21 207.316 130.674 206.666L130.77 206.562C131.21 207.105 131.957 207.461 132.646 207.461C133.507 207.461 134.102 206.914 134.102 206.082C134.102 204.169 130.974 204.472 130.974 202.241C130.974 201.083 131.824 200.366 133.03 200.366C133.814 200.366 134.59 200.682 135.069 201.16L134.992 201.265C134.571 200.894 133.968 200.643 133.44 200.643C132.723 200.643 132.224 201.113 132.224 201.829C132.224 203.64 135.365 203.363 135.365 205.679C135.366 207.02 134.331 207.738 133.058 207.738Z" fill="white"/>
<path d="M145.959 207.643L145.5 202.559L142.953 207.737H142.809L140.081 202.481L139.564 207.643H139.372L140.118 200.366H140.254L143.423 206.447L146.381 200.366H146.524L147.261 207.643H145.959Z" fill="white"/>
<path d="M155.722 207.488V207.641H151.788V200.461H155.655V200.613H153.052V203.763H155.215V203.918H153.052V207.488H155.722Z" fill="white"/>
<path d="M165.257 200.615H162.846V207.642H161.582V200.615H159.169V200.461H165.257V200.615Z" fill="white"/>
<path d="M170.549 200.461H169.285V207.64H170.549V200.461Z" fill="white"/>
<path d="M178.581 207.738C176.439 207.738 174.99 206.264 174.99 204.053C174.99 201.841 176.439 200.368 178.581 200.368C179.528 200.368 180.535 200.732 181.099 201.297L181.023 201.383C180.525 200.945 179.711 200.646 179.01 200.646C177.412 200.646 176.351 202.006 176.351 204.055C176.351 206.104 177.423 207.462 179.031 207.462C179.749 207.462 180.602 207.106 181.136 206.572L181.214 206.687C180.61 207.316 179.548 207.738 178.581 207.738Z" fill="white"/>
<path d="M187.081 207.738C186.113 207.738 185.232 207.316 184.697 206.666L184.792 206.562C185.232 207.105 185.979 207.461 186.669 207.461C187.531 207.461 188.124 206.914 188.124 206.082C188.124 204.169 184.995 204.472 184.995 202.241C184.995 201.083 185.846 200.366 187.054 200.366C187.836 200.366 188.614 200.682 189.091 201.16L189.014 201.265C188.593 200.894 187.99 200.643 187.464 200.643C186.745 200.643 186.246 201.113 186.246 201.829C186.246 203.64 189.387 203.363 189.387 205.679C189.388 207.02 188.355 207.738 187.081 207.738Z" fill="white"/>
<path d="M36.1272 177.87H34.6166C34.4315 177.87 34.252 177.944 34.1245 178.07C33.9943 178.199 33.9271 178.373 33.9353 178.551C34.0738 181.342 33.7585 183.829 33.0032 185.93C32.6564 186.851 32.2041 187.767 31.6558 188.648C31.1226 189.509 30.4262 190.286 29.5887 190.958C28.7526 191.625 27.7149 192.178 26.5045 192.595C25.2928 193.015 23.8439 193.225 22.2018 193.225H15.4001C15.1507 193.225 14.9437 193.14 14.749 192.955C14.553 192.766 14.4626 192.536 14.4626 192.23V160.534C14.4626 160.297 14.553 160.1 14.749 159.912C14.9437 159.727 15.1507 159.639 15.4001 159.639H20.4746C21.9866 159.639 23.2271 160.016 24.2647 160.791C25.2503 161.527 25.7301 162.389 25.7301 163.422V165.483C25.7301 165.843 26.0357 166.134 26.4127 166.134H27.9233C28.3002 166.134 28.6059 165.843 28.6059 165.483V151.36C28.6059 150.999 28.3002 150.709 27.9233 150.709H26.4127C26.0357 150.709 25.7301 150.999 25.7301 151.36V153.524C25.7301 154.558 25.2503 155.42 24.2661 156.155C23.2285 156.929 21.9879 157.306 20.4746 157.306H15.4001C15.1507 157.306 14.9437 157.22 14.749 157.035C14.553 156.846 14.4626 156.615 14.4626 156.31V125.339C14.4626 125.102 14.553 124.903 14.749 124.718C14.9451 124.532 15.1507 124.444 15.4001 124.444H19.718C21.3629 124.444 22.8159 124.643 24.0386 125.029C25.2503 125.414 26.2921 125.92 27.1323 126.527C27.9685 127.136 28.6635 127.828 29.1912 128.588C29.7326 129.361 30.1809 130.187 30.5181 131.018C31.2761 133.058 31.59 135.365 31.4529 137.879C31.442 138.058 31.5105 138.232 31.6407 138.362C31.7668 138.491 31.9478 138.564 32.1342 138.564H33.6434C34.0217 138.564 34.3274 138.272 34.3274 137.913V122.763C34.3274 122.402 34.0217 122.11 33.6434 122.11H1.0416C0.664648 122.11 0.360352 122.402 0.360352 122.763V123.793C0.360352 124.153 0.664648 124.444 1.0416 124.444H1.58167C2.62481 124.444 3.45548 124.754 4.12304 125.387C4.78647 126.024 5.10997 126.784 5.10997 127.709V189.859C5.10997 190.796 4.78373 191.575 4.11343 192.242C3.44725 192.906 2.6207 193.226 1.58167 193.226H1.0416C0.664648 193.226 0.360352 193.52 0.360352 193.88V194.911C0.360352 195.27 0.664648 195.561 1.0416 195.561H36.1272C36.5041 195.561 36.8098 195.27 36.8098 194.911V178.524C36.8098 178.162 36.5041 177.87 36.1272 177.87Z" fill="white"/>
<path d="M102.522 122.112H89.2424C88.9244 122.112 88.6503 122.317 88.579 122.612L75.2115 176.803L61.9454 122.613C61.8742 122.319 61.6 122.112 61.282 122.112H46.9235C46.5465 122.112 46.2408 122.404 46.2408 122.764V123.794C46.2408 124.153 46.5465 124.445 46.9235 124.445H48.4354C49.4059 124.445 50.2023 124.755 50.8671 125.388C51.5319 126.025 51.8554 126.785 51.8554 127.711V189.861C51.8554 190.796 51.5292 191.576 50.8575 192.243C50.1941 192.905 49.4018 193.229 48.4354 193.229H46.9235C46.5465 193.229 46.2408 193.521 46.2408 193.88V194.911C46.2408 195.271 46.5465 195.563 46.9235 195.563H59.6618C60.0388 195.563 60.343 195.271 60.343 194.911V193.88C60.343 193.521 60.0388 193.229 59.6618 193.229H58.1512C57.1835 193.229 56.3926 192.907 55.7277 192.243C55.0575 191.577 54.7312 190.794 54.7312 189.861V131.334L70.2248 195.059C70.2974 195.355 70.5729 195.562 70.8909 195.562H72.8346C73.1485 195.562 73.4227 195.355 73.4967 195.061L89.1012 132.248V189.861C89.1012 190.794 88.775 191.574 88.102 192.243C87.4385 192.905 86.612 193.229 85.5729 193.229H85.0329C84.6559 193.229 84.3503 193.521 84.3503 193.88V194.911C84.3503 195.271 84.6559 195.563 85.0329 195.563H102.522C102.898 195.563 103.203 195.271 103.203 194.911V193.88C103.203 193.521 102.898 193.229 102.522 193.229H101.874C100.906 193.229 100.112 192.907 99.4503 192.243C98.78 191.577 98.4524 190.794 98.4524 189.861V127.711C98.4524 126.782 98.7732 126.024 99.4394 125.389C100.103 124.755 100.901 124.446 101.872 124.446H102.521C102.896 124.446 103.202 124.154 103.202 123.795V122.766C103.203 122.404 102.898 122.112 102.522 122.112Z" fill="white"/>
<path d="M167.293 122.112H154.013C153.697 122.112 153.421 122.317 153.35 122.612L139.983 176.803L126.718 122.613C126.644 122.319 126.371 122.112 126.053 122.112H111.695C111.318 122.112 111.012 122.404 111.012 122.764V123.794C111.012 124.153 111.318 124.445 111.695 124.445H113.206C114.177 124.445 114.973 124.755 115.638 125.388C116.302 126.025 116.626 126.785 116.626 127.711V189.861C116.626 190.796 116.3 191.576 115.627 192.243C114.965 192.905 114.171 193.229 113.205 193.229H111.693C111.316 193.229 111.011 193.521 111.011 193.88V194.911C111.011 195.271 111.316 195.563 111.693 195.563H124.431C124.808 195.563 125.114 195.271 125.114 194.911V193.88C125.114 193.521 124.808 193.229 124.431 193.229H122.921C121.952 193.229 121.161 192.907 120.497 192.243C119.826 191.577 119.498 190.794 119.498 189.861V131.334L134.993 195.059C135.066 195.355 135.341 195.562 135.658 195.562H137.602C137.917 195.562 138.192 195.355 138.264 195.061L153.868 132.248V189.861C153.868 190.794 153.542 191.574 152.869 192.243C152.205 192.905 151.378 193.229 150.339 193.229H149.798C149.422 193.229 149.117 193.521 149.117 193.88V194.911C149.117 195.271 149.422 195.563 149.798 195.563H167.288C167.663 195.563 167.969 195.271 167.969 194.911V193.88C167.969 193.521 167.663 193.229 167.288 193.229H166.639C165.672 193.229 164.879 192.907 164.216 192.243C163.547 191.577 163.218 190.794 163.218 189.861V127.711C163.218 126.782 163.54 126.024 164.205 125.389C164.87 124.755 165.666 124.446 166.638 124.446H167.286C167.662 124.446 167.968 124.154 167.968 123.795V122.766C167.975 122.404 167.669 122.112 167.293 122.112Z" fill="white"/>
<path d="M190.878 125.387C191.543 124.751 192.339 124.444 193.31 124.444H193.958C194.335 124.444 194.639 124.152 194.639 123.792V122.762C194.639 122.4 194.335 122.108 193.958 122.108H176.469C176.093 122.108 175.788 122.4 175.788 122.762V123.792C175.788 124.152 176.093 124.444 176.469 124.444H177.009C178.052 124.444 178.883 124.751 179.55 125.386C180.212 126.023 180.537 126.784 180.537 127.708V189.857C180.537 190.795 180.211 191.572 179.539 192.241C178.874 192.904 178.047 193.225 177.008 193.225H176.467C176.092 193.225 175.786 193.517 175.786 193.879V194.91C175.786 195.269 176.092 195.56 176.467 195.56H193.957C194.334 195.56 194.638 195.269 194.638 194.91V193.879C194.638 193.517 194.334 193.225 193.957 193.225H193.308C192.342 193.225 191.55 192.906 190.886 192.241C190.215 191.572 189.887 190.794 189.887 189.857V127.708C189.89 126.781 190.213 126.023 190.878 125.387Z" fill="white"/>
</svg>
